SplineFontDB: 3.2
FontName: Untitled1
FullName: Untitled1
FamilyName: Untitled1
Weight: Regular
Copyright: Copyright (c) 2020, ricca
UComments: "2020-2-20: Created with FontForge (http://fontforge.org)"
Version: 001.000
ItalicAngle: 0
UnderlinePosition: -100
UnderlineWidth: 50
Ascent: 800
Descent: 200
InvalidEm: 0
LayerCount: 2
Layer: 0 0 "Back" 1
Layer: 1 0 "Fore" 0
XUID: [1021 449 -834741842 1043]
StyleMap: 0x0000
FSType: 0
OS2Version: 0
OS2_WeightWidthSlopeOnly: 0
OS2_UseTypoMetrics: 1
CreationTime: 1582197146
ModificationTime: 1582647384
OS2TypoAscent: 0
OS2TypoAOffset: 1
OS2TypoDescent: 0
OS2TypoDOffset: 1
OS2TypoLinegap: 90
OS2WinAscent: 0
OS2WinAOffset: 1
OS2WinDescent: 0
OS2WinDOffset: 1
HheadAscent: 0
HheadAOffset: 1
HheadDescent: 0
HheadDOffset: 1
Lookup: 4 0 1 "multigraphs" { "multigraphs-1"  } ['liga' ('DFLT' <'dflt' > 'latn' <'dflt' > ) ]
Lookup: 6 8 0 "'calt' r to low stem r" { "'calt' r to low stem r-1"  } ['calt' ('DFLT' <'dflt' > 'latn' <'dflt' > ) ]
Lookup: 1 8 0 "r to low tail r" { "r to low tail r-1"  } []
Lookup: 1 8 0 "r to branch stem r" { "r to branch stem r-1"  } []
Lookup: 6 8 0 "'calt' Alternative contestuali in Latino lookup 4" { "'calt' Alternative contestuali in Latino lookup 4-1"  } ['calt' ('DFLT' <'dflt' > 'latn' <'dflt' > ) ]
Lookup: 1 8 0 "r to rising stem r" { "r to rising stem r-1"  } []
Lookup: 6 8 0 "'calt' Alternative contestuali in Latino lookup 6" { "'calt' Alternative contestuali in Latino lookup 6-1"  } ['calt' ('DFLT' <'dflt' > 'latn' <'dflt' > ) ]
Lookup: 258 0 0 "kern-1" { "kern-1-sub" [150,15,4] } ['kern' ('DFLT' <'dflt' > 'latn' <'dflt' > ) ]
MarkAttachClasses: 1
DEI: 91125
KernClass2: 8 10 "kern-1-sub"
 5 K g k
 3 d t
 33 S Z s z Agrave Aacute Acircumflex
 3 w y
 3 b p
 24 r Ccedilla Egrave Eacute
 10 m n ntilde
 3 d t
 5 K g k
 3 w y
 15 S s Acircumflex
 3 b p
 10 m n ntilde
 8 Ccedilla
 6 Egrave
 6 Eacute

StartChar: K
Encoding: 75 75 0
Width: 571
VWidth: 0
Flags: W
LayerCount: 2
Fore
SplineSet
45 274 m 1
 26.5732421875 293.728515625 l 1
 203.803710938 408.680664062 276.471679688 481.416015625 396.53125 622.463867188 c 1
 421 608 l 1
 445.46875 593.536132812 l 1
 405.261314049 546.299697476 369.532892249 505.922134243 333.09612177 468.749918908 c 1
 374.700406392 340.531142712 438.829030949 254.722469712 538.461914062 177.282226562 c 1
 518 159 l 1
 497.538085938 140.717773438 l 1
 399.1968684 217.153932409 331.044036698 304.44900428 286.461639021 423.370938719 c 1
 226.275808684 367.657719542 158.83074322 316.150916618 63.4267578125 254.271484375 c 1
 45 274 l 1
EndSplineSet
Validated: 1
EndChar

StartChar: y
Encoding: 121 121 4
Width: 533
VWidth: 0
Flags: W
HStem: -25 50<168.288 363.414> 329 50<154.467 364.179> 598.6 50<207.229 396.759>
VStem: 6 60.3037<297.892 423.884> 455 60<106.669 249.008>
LayerCount: 2
Fore
SplineSet
13.060546875 193.233398438 m 4
 10.349609375 208.706054688 8.4365234375 224.783203125 7.2939453125 241.352539062 c 4
 6.4267578125 253.93359375 6 266.823242188 6 280 c 4
 6 429.2421875 67.2314453125 648.599609375 297 648.599609375 c 4
 385.788085938 648.599609375 459.139648438 617.041992188 502.43359375 549.822265625 c 5
 449.56640625 526.176757812 l 5
 416.860351562 576.958984375 368.211914062 598.599609375 297 598.599609375 c 4
 135.748046875 598.599609375 71.3671875 445.067382812 66.3037109375 297.891601562 c 5
 116.494140625 363.903320312 185.840820312 379 267 379 c 4
 390.735351562 379 515 302.68359375 515 177 c 4
 515 51.1689453125 389.606445312 -25 266 -25 c 4
 129.182617188 -25 48.615234375 52.1953125 19.7626953125 162.37109375 c 4
 13.060546875 193.233398438 l 4
74.5068359375 189.600585938 m 4
 74.6962890625 188.693359375 74.919921875 187.6328125 75.0810546875 186.888671875 c 4
 97.8369140625 81.4150390625 158.379882812 25 266 25 c 4
 362.393554688 25 455 82.8310546875 455 177 c 4
 455 271.317382812 363.264648438 329 267 329 c 4
 180.314453125 329 136.55859375 317.908203125 93.1875 232.336914062 c 4
 86.8935546875 219.918945312 80.6171875 205.590820312 74.5068359375 189.600585938 c 4
EndSplineSet
Validated: 1
EndChar

StartChar: w
Encoding: 119 119 5
Width: 533
VWidth: 0
Flags: W
HStem: -268 50<205.758 274.474> -25 50<168.288 363.414> 329 50<154.467 364.179> 598.6 50<207.229 396.759>
VStem: 6 60.3037<297.892 423.884> 325.013 57.9746<-150.983 -111.886> 455 60<106.669 249.008>
LayerCount: 2
Fore
SplineSet
13.060546875 193.233398438 m 0
 10.349609375 208.706054688 8.4365234375 224.783203125 7.2939453125 241.352539062 c 0
 6.4267578125 253.93359375 6 266.823242188 6 280 c 0
 6 429.2421875 67.2314453125 648.599609375 297 648.599609375 c 0
 385.788085938 648.599609375 459.139648438 617.041992188 502.43359375 549.822265625 c 1
 449.56640625 526.176757812 l 1
 416.860351562 576.958984375 368.211914062 598.599609375 297 598.599609375 c 0
 135.748046875 598.599609375 71.3671875 445.067382812 66.3037109375 297.891601562 c 1
 116.494140625 363.903320312 185.840820312 379 267 379 c 0
 390.735351562 379 515 302.68359375 515 177 c 0
 515 51.1689453125 389.606445312 -25 266 -25 c 0
 129.182617188 -25 48.615234375 52.1953125 19.7626953125 162.37109375 c 0
 13.060546875 193.233398438 l 0
74.5068359375 189.600585938 m 0
 74.6962890625 188.693359375 74.919921875 187.6328125 75.0810546875 186.888671875 c 0
 97.8369140625 81.4150390625 158.379882812 25 266 25 c 0
 362.393554688 25 455 82.8310546875 455 177 c 0
 455 271.317382812 363.264648438 329 267 329 c 0
 180.314453125 329 136.55859375 317.908203125 93.1875 232.336914062 c 0
 86.8935546875 219.918945312 80.6171875 205.590820312 74.5068359375 189.600585938 c 0
EndSplineSet
Refer: 13 166 S 1 0 0 1 2 -356 2
Validated: 1
EndChar

StartChar: t
Encoding: 116 116 6
Width: 596
VWidth: 0
UnlinkRmOvrlpSave: 1
Flags: W
HStem: -25 50<165.315 264.128> 319 50<393.256 468.341> 338.308 47.3857<44.8451 85.2186> 642.119 20G<333.752 369.2>
VStem: 78.5 60<52.527 188.911> 344.7 60<125.707 311.381 622.467 651.087>
LayerCount: 2
Fore
SplineSet
333.602539062 312.490234375 m 1x9c
 213.962890625 286.991210938 138.5 190.748046875 138.5 118 c 0
 138.5 67.5068359375 168.791992188 25 215.200195312 25 c 0
 272.9296875 25 344.700195312 120.618164062 344.700195312 222 c 0
 344.700195312 253.135742188 340.865234375 283.515625 333.602539062 312.490234375 c 1x9c
63.400390625 623.599609375 m 1
 75.54296875 646.459960938 l 1
 147.780249685 619.814416933 210.567708882 582.139007582 261.384246381 536.004593684 c 1
 298.745943901 576.328802197 327.390059553 620.122115234 340.11328125 662.119140625 c 1
 369.200195312 656 l 1
 398.287109375 649.880859375 l 1
 382.175947143 596.698768324 346.851657775 543.270756577 300.981283935 495.569853788 c 1
 334.212486752 457.283168865 360.200961164 414.570937594 377.857421875 368.543945312 c 1
 384.07421875 368.837890625 390.528320312 369 396.700195312 369 c 0
 488.998046875 369 541.767578125 316.994140625 570.12109375 251.481445312 c 1
 541.900390625 243 l 1
 513.6796875 234.517578125 l 1
 489.232421875 291.004882812 456.216796875 319 396.700195312 319 c 0xdc
 395.754882812 319 394.401367188 318.9921875 393.255859375 318.981445312 c 1
 400.748046875 287.731445312 404.700195312 255.063476562 404.700195312 222 c 0
 404.700195312 116.228515625 335.669921875 -25 215.200195312 -25 c 0
 116.407226562 -25 78.5 58.4765625 78.5 118 c 0
 78.5 214.723632812 171.041992188 328.999023438 317.782226562 360.727539062 c 1
 303.666081395 395.20225901 284.299610022 427.493454945 260.20302784 457.01631688 c 1
 196.399431994 402.032378871 119.930060701 358.585355343 47.673828125 338.307617188 c 1
 38.099609375 362 l 1
 28.525390625 385.693359375 l 1xbc
 92.4727914309 403.639303483 163.429270947 445.666565197 222.135829794 497.697428141 c 1
 176.105558244 540.800441158 118.418262892 575.966063522 51.2578125 600.739257812 c 1
 63.400390625 623.599609375 l 1
EndSplineSet
EndChar

StartChar: macron
Encoding: 175 175 8
Width: 1000
VWidth: 0
HStem: 808.995 70<-2 359.001>
LayerCount: 2
Fore
SplineSet
-2 878.995117188 m 5
 359.000976562 879 l 5
 359.004882812 809 l 5
 -2 808.995117188 l 5
 -2 878.995117188 l 5
EndSplineSet
Validated: 1
EndChar

StartChar: b
Encoding: 98 98 9
Width: 533
VWidth: 0
Flags: W
HStem: -23 50<169.151 362.849> 325 48.7418<172.236 238.1 298.099 362.839> 599 50<48 238.913 298.913 490>
VStem: 18 60<107.932 243.969> 238.1 59.999<371.705 599> 454 60<107.932 243.603>
LayerCount: 2
Fore
SplineSet
78 176 m 0
 78 94.7626953125 161.461914062 27 266 27 c 0
 370.538085938 27 454 94.76171875 454 176 c 0
 454 257.23828125 370.538085938 325 266 325 c 0
 161.461914062 325 78 257.23828125 78 176 c 0
48 624 m 1
 48 649 l 1
 490 649 l 1
 490 624 l 1
 490 599 l 1
 298.913379083 599 l 1
 298.098896129 373.331748718 l 1
 418.786716368 360.703989582 514 277.880841797 514 176 c 0
 514 65.23828125 401.461914062 -23 266 -23 c 0
 130.538085938 -23 18 65.2373046875 18 176 c 0
 18 279.059484083 115.429039633 362.617773014 238.099875413 373.741750388 c 1
 238.912878588 599 l 1
 48 599 l 1
 48 624 l 1
EndSplineSet
Validated: 1
EndChar

StartChar: currency
Encoding: 164 164 10
Width: 284
VWidth: 0
Flags: W
HStem: 95.1074 181.129
VStem: 158.948 58.1035<227.04 265.266>
LayerCount: 2
Fore
SplineSet
87 112 m 1
 64.8857421875 128.893554688 l 1
 104.704101562 165.091796875 143.31640625 225.661132812 158.948242188 276.236328125 c 1
 188 270 l 1
 217.051757812 263.763671875 l 1
 198.68359375 204.338867188 157.295898438 138.908203125 109.114257812 95.107421875 c 1
 87 112 l 1
EndSplineSet
Validated: 1
EndChar

StartChar: yen
Encoding: 165 165 11
Width: 299
VWidth: 0
Flags: W
HStem: 82.5371 211.936
VStem: 126.896 58.1035<245.276 283.503> 224.509 58.9824<193.197 255.503>
LayerCount: 2
Fore
SplineSet
175 99 m 1
 152.422851562 115.462890625 l 1
 189.004882812 150.302734375 209.893554688 198.302734375 224.508789062 263.584960938 c 1
 254 259 l 1
 283.491210938 254.415039062 l 1
 268.106445312 185.698242188 244.995117188 127.697265625 197.577148438 82.537109375 c 1
 175 99 l 1
54.9482421875 130.236328125 m 1
 32.833984375 147.129882812 l 1
 72.65234375 183.328125 111.264648438 243.897460938 126.896484375 294.47265625 c 1
 155.948242188 288.236328125 l 1
 185 282 l 1
 166.631835938 222.575195312 125.244140625 157.14453125 77.0625 113.34375 c 1
 54.9482421875 130.236328125 l 1
EndSplineSet
Validated: 1
EndChar

StartChar: brokenbar
Encoding: 166 166 13
Width: 421
VWidth: 0
Flags: W
HStem: 88 50<203.758 272.474>
VStem: 323.013 57.9746<205.017 244.114>
LayerCount: 2
Fore
SplineSet
23.10546875 88.189453125 m 5
 90 154 137.7421875 212.040039062 163.61328125 275.088867188 c 1
 220.953125 260.454101562 l 5
 209.844726562 226.3359375 202.263671875 195.930664062 202.2109375 174.666015625 c 0
 202.138671875 145.6953125 207.228515625 138 243 138 c 0
 257.755859375 138 298.010742188 177.309570312 323.012695312 255.44140625 c 1
 352 249 l 1
 380.987304688 242.55859375 l 1
 357.989257812 170.690429688 318.33203125 88 243 88 c 0
 195.91796875 88 160.788085938 106.17578125 147.903320312 139.587890625 c 1
 131.240234375 118.934570312 88.42578125 76.2392578125 70 57 c 5
 23.10546875 88.189453125 l 5
EndSplineSet
Validated: 33
EndChar

StartChar: Agrave
Encoding: 192 192 15
Width: 540
VWidth: 0
Flags: W
HStem: 334 50<171.151 364.849> 682 50<171.151 364.849>
VStem: 20 60<464.932 601.068> 456 60<464.932 601.068>
LayerCount: 2
Fore
SplineSet
80 533 m 4
 80 451.762695312 163.461914062 384 268 384 c 4
 372.538085938 384 456 451.76171875 456 533 c 4
 456 614.23828125 372.538085938 682 268 682 c 4
 163.461914062 682 80 614.23828125 80 533 c 4
20 533 m 4
 20 643.762695312 132.538085938 732 268 732 c 4
 403.461914062 732 516 643.762695312 516 533 c 4
 516 422.23828125 403.461914062 334 268 334 c 4
 132.538085938 334 20 422.237304688 20 533 c 4
EndSplineSet
Validated: 1
EndChar

StartChar: Aacute
Encoding: 193 193 16
Width: 540
VWidth: 0
Flags: W
HStem: -113 50<36.2047 178.887>
VStem: 240 60<6.46695 361>
LayerCount: 2
Fore
SplineSet
270 361 m 5
 300 361 l 5
 300 119 l 6
 300 -13.5263671875 239.842773438 -113 105 -113 c 4
 -37.4677734375 -113 -110.100585938 26.2783203125 -110.100585938 26.2783203125 c 5
 -83 37 l 5
 -55.8994140625 47.72265625 l 5
 -53.4921875 43.5361328125 13.87109375 -63 105 -63 c 4
 190.194335938 -63 240 -6.4736328125 240 119 c 6
 240 361 l 5
 270 361 l 5
EndSplineSet
Validated: 1
EndChar

StartChar: Adieresis
Encoding: 196 196 22
Width: 537
VWidth: 0
Flags: W
HStem: -25 50<161.586 356.712> 329 50<160.821 370.533> 598.6 50<128.241 317.771>
VStem: 10 60<106.669 249.008> 458.696 60.3037<297.892 423.884>
LayerCount: 2
Fore
SplineSet
511.939453125 193.233398438 m 0
 505.237304688 162.37109375 l 0
 476.384765625 52.1953125 395.817382812 -25 259 -25 c 0
 135.393554688 -25 10 51.1689453125 10 177 c 0
 10 302.68359375 134.264648438 379 258 379 c 0
 339.159179688 379 408.505859375 363.903320312 458.696289062 297.891601562 c 1
 453.6328125 445.067382812 389.251953125 598.599609375 228 598.599609375 c 0
 156.788085938 598.599609375 108.139648438 576.958984375 75.43359375 526.176757812 c 1
 22.56640625 549.822265625 l 1
 65.8603515625 617.041992188 139.211914062 648.599609375 228 648.599609375 c 0
 457.768554688 648.599609375 519 429.2421875 519 280 c 0
 519 266.823242188 518.573242188 253.93359375 517.706054688 241.352539062 c 0
 516.563476562 224.783203125 514.650390625 208.706054688 511.939453125 193.233398438 c 0
450.493164062 189.600585938 m 0
 444.3828125 205.590820312 438.106445312 219.918945312 431.8125 232.336914062 c 0
 388.44140625 317.908203125 344.685546875 329 258 329 c 0
 161.735351562 329 70 271.317382812 70 177 c 0
 70 82.8310546875 162.606445312 25 259 25 c 0
 366.620117188 25 427.163085938 81.4150390625 449.918945312 186.888671875 c 0
 450.080078125 187.6328125 450.303710938 188.693359375 450.493164062 189.600585938 c 0
EndSplineSet
Validated: 1
EndChar

StartChar: quotesingle
Encoding: 39 39 23
Width: 319
VWidth: 0
UnlinkRmOvrlpSave: 1
Flags: W
HStem: 691.331 20G<167 240.466>
LayerCount: 2
Fore
SplineSet
177 469 m 5
 157.548828125 488.033203125 l 5
 166.249023438 494.20703125 173.990234375 500.352539062 180.756835938 506.430664062 c 4
 235.975585938 556.029296875 238.017578125 604.028320312 146.6015625 674.66796875 c 5
 167 693 l 5
 187.3984375 711.331054688 l 5
 293.533203125 629.318359375 304.4453125 544.015625 224.743164062 472.424804688 c 4
 216.178710938 464.732421875 206.73046875 457.26171875 196.451171875 449.966796875 c 5
 177 469 l 5
47 618 m 5
 33.8447265625 640.467773438 l 5
 119.9453125 675.475585938 166.70703125 713.258789062 209.450195312 795.895507812 c 5
 237 786 l 5
 264.549804688 776.104492188 l 5
 217.29296875 684.741210938 156.0546875 634.524414062 60.1552734375 595.53125 c 5
 47 618 l 5
EndSplineSet
EndChar

StartChar: n
Encoding: 110 110 24
Width: 486
VWidth: 0
Flags: W
VStem: 55.4561 59.0879<550.35 620.286>
LayerCount: 2
Fore
SplineSet
85 623.600585938 m 1
 114.543945312 627.944335938 l 1
 165.71484375 386.259765625 275.247070312 194.568359375 440.778320312 15.2431640625 c 1
 417 0 l 1
 393.221679688 -15.2431640625 l 1
 222.752929688 169.431640625 108.28515625 369.740234375 55.4560546875 619.256835938 c 1
 85 623.600585938 l 1
EndSplineSet
Validated: 1
EndChar

StartChar: r
Encoding: 114 114 26
Width: 544
VWidth: 0
Flags: W
HStem: 371.8 50<186.556 363.444> 683.8 50<186.556 363.444>
VStem: 49.7998 60<489.165 616.435> 440.2 60<489.165 616.435>
LayerCount: 2
Fore
SplineSet
109.799804688 552.799804688 m 0
 109.799804688 481.470703125 182.522460938 421.799804688 275 421.799804688 c 0
 367.477539062 421.799804688 440.200195312 481.469726562 440.200195312 552.799804688 c 0
 440.200195312 624.129882812 367.477539062 683.799804688 275 683.799804688 c 0
 182.522460938 683.799804688 109.799804688 624.129882812 109.799804688 552.799804688 c 0
49.7998046875 552.799804688 m 0
 49.7998046875 653.469726562 151.477539062 733.799804688 275 733.799804688 c 0
 398.522460938 733.799804688 500.200195312 653.469726562 500.200195312 552.799804688 c 0
 500.200195312 452.129882812 398.522460938 371.799804688 275 371.799804688 c 0
 151.477539062 371.799804688 49.7998046875 452.129882812 49.7998046875 552.799804688 c 0
EndSplineSet
Validated: 1
Substitution2: "r to rising stem r-1" Eacute
Substitution2: "r to branch stem r-1" Egrave
Substitution2: "r to low tail r-1" Ccedilla
EndChar

StartChar: h
Encoding: 104 104 27
Width: 540
VWidth: 0
UnlinkRmOvrlpSave: 1
Flags: W
HStem: 1 50<84 84 295.104 438> 334 50<171.151 364.849> 682 50<171.151 364.849>
VStem: 20 60<464.932 601.068> 456 60<464.932 601.068>
LayerCount: 2
Fore
SplineSet
438 26 m 1
 438 1 l 1
 84 1 l 1
 84 26 l 1
 84 51 l 1
 235.104372916 51 l 1
 235.074234208 45.9044666629 235.040039062 351.373046875 235.000976562 346 c 1
 265 345.848632812 l 1
 294.999023438 345.697265625 l 1
 295.0390625 351.176757812 295.073769314 45.8085903439 295.104446976 51 c 1
 438 51 l 1
 438 26 l 1
EndSplineSet
Refer: 15 192 N 1 0 0 1 0 0 2
EndChar

StartChar: ydieresis
Encoding: 255 255 28
Width: 620
VWidth: 0
Flags: W
HStem: 424.55 50<268.451 469.058> 434 50<-37 95.6787> 703 50<309.756 480.168>
VStem: 515 60<515.105 667.135>
LayerCount: 2
Fore
SplineSet
233.965820312 572.211914062 m 5xb0
 232.962890625 572.174804688 l 5
 233.396484375 565.141601562 233.540039062 563.229492188 234.390625 557.424804688 c 4
 239.356445312 523.534179688 254.482421875 474.549804688 356 474.549804688 c 4
 459.9375 474.549804688 515 507.041992188 515 575 c 4
 515 662.609375 485.34765625 703 406 703 c 4
 281.81640625 703 274.129882812 648.241210938 233.965820312 572.211914062 c 5xb0
188.389648438 506.705078125 m 5
 145.999023438 463.728515625 77.4599609375 434 -37 434 c 5
 -37 459 l 5
 -37 484 l 5x70
 89.232421875 484 132.067382812 519.23046875 161.435546875 562.4296875 c 4
 206.549804688 628.791015625 219.03125 753 406 753 c 4
 530.69140625 753 575 671.489257812 575 575 c 4
 575 470.946289062 475.26171875 424.549804688 356 424.549804688 c 4
 259.337890625 424.549804688 209.069335938 465.159179688 188.389648438 506.705078125 c 5
EndSplineSet
Validated: 1
EndChar

StartChar: Ccedilla
Encoding: 199 199 29
Width: 544
VWidth: 0
UnlinkRmOvrlpSave: 1
Flags: W
HStem: 205 50<-269 -8.40678> 371.8 50<186.556 363.444> 683.8 50<186.556 363.444>
VStem: 49.7998 60<489.165 616.435> 50 60<361.752 551> 440.2 60<489.165 616.435>
LayerCount: 2
Fore
SplineSet
80 551 m 5xec
 110 551 l 5
 110 434.171875 103.54296875 205 -46 205 c 6
 -269 205 l 5
 -269 255 l 5
 -46 255 l 6
 18.466796875 255 50 408.721679688 50 551 c 5
 80 551 l 5xec
EndSplineSet
Refer: 26 114 N 1 0 0 1 0 0 2
EndChar

StartChar: Egrave
Encoding: 200 200 30
Width: 567
VWidth: 0
UnlinkRmOvrlpSave: 1
Flags: W
HStem: 371.8 50<209.556 386.444> 375 50<-29.5136 46.7419> 683.8 50<209.556 386.444>
VStem: 72.7998 60<489.165 616.435> 73 60<453.417 551> 463.2 60<489.165 616.435>
LayerCount: 2
Fore
SplineSet
103 551 m 1x6c
 133 551 l 1
 133 488.3984375 118.580078125 375 15 375 c 0
 -54.73046875 375 -92.046875 426.147460938 -112.473632812 464.958007812 c 1
 -85 475 l 1
 -57.5263671875 485.041992188 l 1
 -37.953125 447.852539062 -13.26953125 425 15 425 c 0
 47.419921875 425 73 477.600585938 73 551 c 1
 103 551 l 1x6c
EndSplineSet
Refer: 26 114 N 1 0 0 1 23 0 2
EndChar

StartChar: Eacute
Encoding: 201 201 31
Width: 544
VWidth: 0
UnlinkRmOvrlpSave: 1
Flags: W
HStem: 371.8 50<186.556 363.444> 683.8 50<186.556 363.444>
VStem: 49.7998 60<489.165 616.435> 52 60<409.347 552> 440.2 60<489.165 616.435>
LayerCount: 2
Fore
SplineSet
82 552 m 1xd8
 112 552 l 1
 112 394.978515625 62.4228515625 317.99609375 -48.787109375 225.322265625 c 1
 -70 243 l 1
 -91.212890625 260.677734375 l 1
 13.5771484375 348.002929688 52 405.021484375 52 552 c 1
 82 552 l 1xd8
EndSplineSet
Refer: 26 114 N 1 0 0 1 0 0 2
EndChar

StartChar: period
Encoding: 46 46 32
Width: 190
VWidth: 0
Flags: W
HStem: -206 104<45.7098 140.29>
VStem: 35 116<-194.217 -113.783>
LayerCount: 2
Fore
SplineSet
35 -154 m 0
 35 -125 61 -102 93 -102 c 0
 125 -102 151 -125 151 -154 c 0
 151 -183 125 -206 93 -206 c 0
 61 -206 35 -183 35 -154 c 0
EndSplineSet
Validated: 1
EndChar

StartChar: c
Encoding: 99 99 33
Width: 1000
VWidth: 0
HStem: 146 252<259.135 354.865>
VStem: 221 172<189.375 354.625>
LayerCount: 2
Fore
SplineSet
221 272 m 4
 221 342 260 398 307 398 c 4
 354 398 393 342 393 272 c 4
 393 202 354 146 307 146 c 4
 260 146 221 202 221 272 c 4
EndSplineSet
Validated: 1
EndChar

StartChar: D
Encoding: 68 68 37
Width: 1000
VWidth: 0
HStem: 194 320<348.637 529.363>
VStem: 257 364<281.321 426.679>
LayerCount: 2
Fore
SplineSet
257 354 m 4
 257 442 339 514 439 514 c 4
 539 514 621 442 621 354 c 4
 621 266 539 194 439 194 c 4
 339 194 257 266 257 354 c 4
EndSplineSet
Validated: 1
EndChar

StartChar: F
Encoding: 70 70 38
Width: 1000
VWidth: 0
HStem: -22 21G<398.5 431.5>
VStem: 355 120<37.7307 442.269>
LayerCount: 2
Fore
SplineSet
355 240 m 4
 355 385 382 502 415 502 c 4
 448 502 475 385 475 240 c 4
 475 95 448 -22 415 -22 c 4
 382 -22 355 95 355 240 c 4
EndSplineSet
Validated: 1
EndChar

StartChar: P
Encoding: 80 80 39
Width: 1000
VWidth: 0
HStem: 126 292<413.556 560.444>
VStem: 345 284<196.131 347.869>
LayerCount: 2
Fore
SplineSet
345 272 m 4
 345 353 409 418 487 418 c 4
 565 418 629 353 629 272 c 4
 629 191 565 126 487 126 c 4
 409 126 345 191 345 272 c 4
EndSplineSet
Validated: 1
EndChar

StartChar: R
Encoding: 82 82 40
Width: 1000
VWidth: 0
HStem: 192 288<417.15 572.85>
VStem: 345 300<261.566 410.434>
LayerCount: 2
Fore
SplineSet
345 336 m 4
 345 415 412 480 495 480 c 4
 578 480 645 415 645 336 c 4
 645 257 578 192 495 192 c 4
 412 192 345 257 345 336 c 4
EndSplineSet
Validated: 1
EndChar

StartChar: T
Encoding: 84 84 41
Width: 1000
VWidth: 0
HStem: 222 284<427.481 558.519>
VStem: 367 252<284.793 443.207>
LayerCount: 2
Fore
SplineSet
367 364 m 4
 367 442 423 506 493 506 c 4
 563 506 619 442 619 364 c 4
 619 286 563 222 493 222 c 4
 423 222 367 286 367 364 c 4
EndSplineSet
Validated: 1
EndChar

StartChar: H
Encoding: 72 72 42
Width: 1000
VWidth: 0
HStem: 252 204<417.844 576.156>
VStem: 369 256<297.117 410.883>
LayerCount: 2
Fore
SplineSet
369 354 m 4
 369 410 426 456 497 456 c 4
 568 456 625 410 625 354 c 4
 625 298 568 252 497 252 c 4
 426 252 369 298 369 354 c 4
EndSplineSet
Validated: 1
EndChar

StartChar: L
Encoding: 76 76 43
Width: 1000
VWidth: 0
HStem: 248 244<342.92 515.08>
VStem: 275 308<309.442 430.558>
LayerCount: 2
Fore
SplineSet
275 370 m 4
 275 437 344 492 429 492 c 4
 514 492 583 437 583 370 c 4
 583 303 514 248 429 248 c 4
 344 248 275 303 275 370 c 4
EndSplineSet
Validated: 1
EndChar

StartChar: J
Encoding: 74 74 44
Width: 1000
VWidth: 0
HStem: 224 260<394.145 551.855>
VStem: 327 292<286.5 421.5>
LayerCount: 2
Fore
SplineSet
327 354 m 4
 327 426 392 484 473 484 c 4
 554 484 619 426 619 354 c 4
 619 282 554 224 473 224 c 4
 392 224 327 282 327 354 c 4
EndSplineSet
Validated: 1
EndChar

StartChar: j
Encoding: 106 106 46
Width: 1000
VWidth: 0
HStem: 251 152<406.233 505.767>
VStem: 384 144<273.25 380.75>
LayerCount: 2
Fore
SplineSet
384 327 m 4
 384 369 416 403 456 403 c 4
 496 403 528 369 528 327 c 4
 528 285 496 251 456 251 c 4
 416 251 384 285 384 327 c 4
EndSplineSet
Validated: 1
EndChar
